<svg xmlns="http://www.w3.org/2000/svg" xmlns:xlink="http://www.w3.org/1999/xlink" viewBox="0 0 47.155 78.963">
  <defs>
    <style>
      .cls-1 {
        fill: url(#linear-gradient);
      }

      .cls-2 {
        fill: url(#linear-gradient-2);
      }

      .cls-3 {
        fill: #6dccff;
      }
    </style>
    <linearGradient id="linear-gradient" x1="0.814" x2="0" y2="1" gradientUnits="objectBoundingBox">
      <stop offset="0" stop-color="#1caffd"/>
      <stop offset="0.598" stop-color="#1caffd"/>
      <stop offset="1" stop-color="#0067b6"/>
    </linearGradient>
    <linearGradient id="linear-gradient-2" x1="2.067" y1="-1.266" xlink:href="#linear-gradient"/>
  </defs>
  <g id="bolt" transform="translate(-877.985 -3111.4)">
    <path id="Path_919" data-name="Path 919" class="cls-1" d="M-819.3,10138.4l-20.267,43.957H-827.7l-16.319,35.007,37.639-46.325H-821.94l25.08-32.639Z" transform="translate(1722 -7027)"/>
    <path id="Path_932" data-name="Path 932" class="cls-2" d="M-827.7,10182.356l-16.319,35.007,37.639-46.325H-821.94Z" transform="translate(1722 -7027)"/>
    <circle id="Ellipse_200" data-name="Ellipse 200" class="cls-3" cx="2.5" cy="2.5" r="2.5" transform="translate(912.7 3113)"/>
    <circle id="Ellipse_203" data-name="Ellipse 203" class="cls-3" cx="2.038" cy="2.038" r="2.038" transform="translate(907.223 3121)"/>
    <circle id="Ellipse_205" data-name="Ellipse 205" class="cls-3" cx="1.746" cy="1.746" r="1.746" transform="translate(902.286 3129)"/>
    <ellipse id="Ellipse_207" data-name="Ellipse 207" class="cls-3" cx="1.459" cy="1.459" rx="1.459" ry="1.459" transform="translate(898.368 3136)"/>
    <circle id="Ellipse_201" data-name="Ellipse 201" class="cls-3" cx="2.5" cy="2.5" r="2.5" transform="translate(904.7 3113)"/>
    <circle id="Ellipse_202" data-name="Ellipse 202" class="cls-3" cx="2.038" cy="2.038" r="2.038" transform="translate(900.7 3121)"/>
    <circle id="Ellipse_204" data-name="Ellipse 204" class="cls-3" cx="1.746" cy="1.746" r="1.746" transform="translate(896.7 3129)"/>
    <ellipse id="Ellipse_206" data-name="Ellipse 206" class="cls-3" cx="1.459" cy="1.459" rx="1.459" ry="1.459" transform="translate(893.7 3136)"/>
  </g>
</svg>
