<svg xmlns="http://www.w3.org/2000/svg" xmlns:xlink="http://www.w3.org/1999/xlink" viewBox="0 0 51.3 69.601">
  <defs>
    <style>
      .cls-1 {
        fill: url(#linear-gradient);
      }

      .cls-2 {
        fill: url(#linear-gradient-2);
      }

      .cls-3 {
        fill: #fad7a5;
      }

      .cls-4 {
        fill: #cd905a;
      }

      .cls-5 {
        fill: #008ad3;
      }

      .cls-6 {
        fill: #006ea8;
      }

      .cls-7 {
        fill: #f0c891;
      }

      .cls-8 {
        fill: #ffe1b3;
      }

      .cls-9 {
        fill: #1caffd;
      }

      .cls-10 {
        fill: url(#linear-gradient-3);
      }

      .cls-11 {
        fill: #009df0;
      }

      .cls-12 {
        fill: #6dccff;
      }
    </style>
    <linearGradient id="linear-gradient" x1="0.097" y1="0.161" x2="3.395" y2="1.971" gradientUnits="objectBoundingBox">
      <stop offset="0" stop-color="#1caffd"/>
      <stop offset="1" stop-color="#0067b6"/>
    </linearGradient>
    <linearGradient id="linear-gradient-2" x1="0.524" y1="0" x2="0.527" y2="1.528" xlink:href="#linear-gradient"/>
    <linearGradient id="linear-gradient-3" x1="0.778" y1="0.368" x2="-0.091" y2="0.845" xlink:href="#linear-gradient"/>
  </defs>
  <g id="customer-support" transform="translate(-67.311)">
    <circle id="Ellipse_221" data-name="Ellipse 221" class="cls-1" cx="12.565" cy="12.565" r="12.565" transform="translate(67.311 0.356)"/>
    <path id="Path_935" data-name="Path 935" class="cls-2" d="M121.326,379.434,119.463,379H89.788l-1.863.436a10.488,10.488,0,0,0-8.1,10.213V396.4a.68.68,0,0,0,.68.68h48.239a.68.68,0,0,0,.68-.68v-6.752A10.488,10.488,0,0,0,121.326,379.434Z" transform="translate(-10.814 -327.478)"/>
    <path id="Path_936" data-name="Path 936" class="cls-3" d="M167.946,305a16.643,16.643,0,0,0,14.838-9.1l-3.924-.918a5.746,5.746,0,0,1-4.437-5.6v-6.561H161.469v6.561a5.746,5.746,0,0,1-4.437,5.6l-3.924.918A16.643,16.643,0,0,0,167.946,305Z" transform="translate(-74.134 -244.377)"/>
    <rect id="Rectangle_546" data-name="Rectangle 546" class="cls-4" width="3.068" height="5.424" transform="translate(76.453 17.331)"/>
    <path id="Path_937" data-name="Path 937" class="cls-5" d="M119.035,143.322H122v12.715h-2.969a2.557,2.557,0,0,1-2.557-2.557v-7.6A2.557,2.557,0,0,1,119.035,143.322Z" transform="translate(-42.483 -123.839)"/>
    <rect id="Rectangle_547" data-name="Rectangle 547" class="cls-6" width="2.682" height="12.716" transform="translate(77.331 19.483)"/>
    <path id="Path_938" data-name="Path 938" class="cls-5" d="M366.415,156.037h-2.969V143.322h2.969a2.557,2.557,0,0,1,2.557,2.557v7.6A2.557,2.557,0,0,1,366.415,156.037Z" transform="translate(-255.879 -123.839)"/>
    <rect id="Rectangle_548" data-name="Rectangle 548" class="cls-6" width="2.863" height="12.716" transform="translate(107.065 19.483)"/>
    <path id="Path_939" data-name="Path 939" class="cls-7" d="M227.369,289.384v-6.561H214.417v6.561a5.741,5.741,0,0,1-.032.591,13.961,13.961,0,0,0,6.24,1.465h0a13.957,13.957,0,0,0,6.754-1.733C227.373,289.6,227.369,289.493,227.369,289.384Z" transform="translate(-127.081 -244.377)"/>
    <path id="Path_940" data-name="Path 940" class="cls-8" d="M171.153,71.829h0A14.023,14.023,0,0,1,157.13,57.806V46.342a14.023,14.023,0,0,1,14.023-14.023h0a14.023,14.023,0,0,1,14.023,14.023V57.806A14.023,14.023,0,0,1,171.153,71.829Z" transform="translate(-77.609 -27.926)"/>
    <path id="Path_942" data-name="Path 942" class="cls-3" d="M212.456,33.765a14.007,14.007,0,0,1,6.131,11.591V56.821a14.023,14.023,0,0,1-14.023,14.023h0a14.1,14.1,0,0,1-2.331-.2,13.956,13.956,0,0,0,7.892,2.432h0a14.023,14.023,0,0,0,14.023-14.023V47.592A14.024,14.024,0,0,0,212.456,33.765Z" transform="translate(-116.581 -29.175)"/>
    <path id="Path_943" data-name="Path 943" class="cls-9" d="M278.493,231v1.42a3.707,3.707,0,0,1-3.707,3.707H264.254a1.084,1.084,0,0,0-1.094.989,1.06,1.06,0,0,0,1.058,1.131h10.568a5.828,5.828,0,0,0,5.828-5.828V231a.513.513,0,0,0-.513-.513h-1.1A.513.513,0,0,0,278.493,231Z" transform="translate(-169.224 -199.153)"/>
    <path id="Path_944" data-name="Path 944" class="cls-10" d="M137.069,65.742a16.489,16.489,0,0,0-2.409,10.546,16.915,16.915,0,0,0,3.96-1.52,18.9,18.9,0,0,0,4.04-3h0Z" transform="translate(-58.109 -56.805)"/>
    <path id="Path_945" data-name="Path 945" class="cls-9" d="M185.459,16.872a25.26,25.26,0,0,0-6.4-11.756C178.011,4.105,174.083.305,168.268,0a17.624,17.624,0,0,0-11.307,4.145,17.269,17.269,0,0,0-2.168,2.219,20.652,20.652,0,0,0-1.787,2.569c4.876,6.977,12.192,11.414,20.372,11.414,2.014,0,6.223-.614,8.234-1.934Z" transform="translate(-74.047 0)"/>
    <path id="Path_946" data-name="Path 946" class="cls-10" d="M253.254,5.118C252.208,4.106,248.28.306,242.465.006a15.213,15.213,0,0,0-3.588.38,18.055,18.055,0,0,1,8.18,4.732,25.262,25.262,0,0,1,6.4,11.756l-3.846,1.544A14.829,14.829,0,0,1,244.25,20.1a22.412,22.412,0,0,0,3.326.251c2.014,0,6.223-.614,8.234-1.934l3.845-1.544A25.261,25.261,0,0,0,253.254,5.118Z" transform="translate(-148.244 -0.001)"/>
    <g id="Group_1845" data-name="Group 1845" transform="translate(69.012 57.054)">
      <path id="Path_947" data-name="Path 947" class="cls-11" d="M83.045,419.7H81.162a10.358,10.358,0,0,0-1.336,5.094v6.773a.68.68,0,0,0,.68.68h8.642V425.8A6.1,6.1,0,0,0,83.045,419.7Z" transform="translate(-79.826 -419.702)"/>
      <path id="Path_948" data-name="Path 948" class="cls-11" d="M382.218,419.7H384.1a10.359,10.359,0,0,1,1.336,5.094v6.773a.68.68,0,0,1-.68.68h-8.642V425.8A6.1,6.1,0,0,1,382.218,419.7Z" transform="translate(-335.838 -419.702)"/>
    </g>
    <circle id="Ellipse_222" data-name="Ellipse 222" class="cls-12" cx="2.289" cy="2.289" r="2.289" transform="translate(98.388 11.895)"/>
    <circle id="Ellipse_223" data-name="Ellipse 223" class="cls-12" cx="1.789" cy="1.789" r="1.789" transform="translate(96.388 6.895)"/>
    <circle id="Ellipse_224" data-name="Ellipse 224" class="cls-12" cx="1.289" cy="1.289" r="1.289" transform="translate(93.388 3.895)"/>
    <circle id="Ellipse_225" data-name="Ellipse 225" class="cls-12" cx="0.789" cy="0.789" r="0.789" transform="translate(90.388 2.895)"/>
  </g>
</svg>
