<svg xmlns="http://www.w3.org/2000/svg" xmlns:xlink="http://www.w3.org/1999/xlink" viewBox="0 0 546.044 300.451">
  <defs>
    <style>
      .cls-1 {
        fill: #184cc6;
      }

      .cls-2, .cls-3 {
        fill: none;
        stroke: #5789ff;
        stroke-linecap: round;
      }

      .cls-2 {
        stroke-linejoin: round;
      }

      .cls-4 {
        fill: #08349b;
      }

      .cls-5 {
        fill: url(#linear-gradient);
      }

      .cls-6 {
        fill: #fff;
      }

      .cls-7 {
        fill: #e7f7ff;
      }

      .cls-8 {
        fill: #cbd9ff;
      }

      .cls-9 {
        fill: #1caffd;
      }

      .cls-10 {
        fill: #70adff;
      }

      .cls-11 {
        fill: url(#linear-gradient-3);
      }

      .cls-12 {
        fill: #94daff;
      }

      .cls-13 {
        fill: #b3e4ff;
      }

      .cls-14 {
        fill: url(#linear-gradient-5);
      }

      .cls-15 {
        fill: url(#linear-gradient-6);
      }

      .cls-16 {
        fill: url(#linear-gradient-7);
      }

      .cls-17 {
        fill: #2e3338;
      }

      .cls-18 {
        fill: #ffcb8f;
      }

      .cls-19 {
        fill: #165089;
      }

      .cls-20 {
        fill: #04396c;
      }

      .cls-21 {
        fill: #0094e2;
      }

      .cls-22 {
        fill: #ffcb97;
      }

      .cls-23 {
        fill: url(#linear-gradient-16);
      }
    </style>
    <linearGradient id="linear-gradient" y1="-0.009" x2="0.955" y2="1.065" gradientUnits="objectBoundingBox">
      <stop offset="0" stop-color="#203c7f"/>
      <stop offset="1" stop-color="#a2bdff"/>
    </linearGradient>
    <linearGradient id="linear-gradient-3" x1="0.5" x2="0.5" y2="1" gradientUnits="objectBoundingBox">
      <stop offset="0" stop-color="#f80"/>
      <stop offset="1" stop-color="#ffbf76"/>
    </linearGradient>
    <linearGradient id="linear-gradient-5" x1="0.5" x2="0.5" y2="1" gradientUnits="objectBoundingBox">
      <stop offset="0" stop-color="#1caffd"/>
      <stop offset="1" stop-color="#a0deff"/>
    </linearGradient>
    <linearGradient id="linear-gradient-6" x1="-1.481" y1="1.087" x2="2.215" y2="0.27" gradientUnits="objectBoundingBox">
      <stop offset="0" stop-color="#203c7f"/>
      <stop offset="1" stop-color="#427aff"/>
    </linearGradient>
    <linearGradient id="linear-gradient-7" x1="0.5" x2="0.5" y2="1" gradientUnits="objectBoundingBox">
      <stop offset="0" stop-color="#ffe8e8"/>
      <stop offset="1" stop-color="#ff8488"/>
    </linearGradient>
    <linearGradient id="linear-gradient-16" x1="0.5" x2="1" y2="1" gradientUnits="objectBoundingBox">
      <stop offset="0" stop-color="#fdcb3e"/>
      <stop offset="1" stop-color="#f80"/>
    </linearGradient>
  </defs>
  <g id="artwork_3" data-name="artwork 3" transform="translate(-746.462 -1855.033)">
    <g id="Group_1752" data-name="Group 1752" transform="translate(1151.219 1884.334) rotate(6)">
      <path id="Path_490" data-name="Path 490" class="cls-1" d="M31.8,104.484c44.7-39.416,28.123-58.448,35.28-78.626A38.97,38.97,0,0,1,119.421,3.3c21.856,9.442,22.18,38.213,11.228,55.85s-22.226,26.463-22.877,45.332,20.54,41.478,0,85.91-73.834,43.328-92.177,21.851S-12.9,143.9,31.8,104.484Z" transform="translate(0 0)"/>
      <path id="Path_491" data-name="Path 491" class="cls-2" d="M0,166.468s5.67-45.386,22.814-87S68.579,0,68.579,0" transform="translate(46.326 26.38)"/>
      <path id="Path_492" data-name="Path 492" class="cls-3" d="M0,24.32S16.917.635,29,0" transform="translate(53.287 139.705)"/>
      <path id="Path_495" data-name="Path 495" class="cls-3" d="M0,24.32S16.917.635,29,0" transform="translate(67.271 90.762)"/>
      <path id="Path_496" data-name="Path 496" class="cls-3" d="M0,7.981S4.683.636,16.769,0" transform="translate(91.743 58.158)"/>
      <path id="Path_497" data-name="Path 497" class="cls-3" d="M0,7.98S4.683.635,16.769,0" transform="translate(89.901 49.32) rotate(-69)"/>
      <path id="Path_493" data-name="Path 493" class="cls-3" d="M0,23.111S16.074.6,27.559,0" transform="translate(38.8 119.243) rotate(-69)"/>
      <path id="Path_494" data-name="Path 494" class="cls-3" d="M0,12.027S8.745.314,14.992,0" transform="translate(64.88 83.011) rotate(-69)"/>
    </g>
    <g id="Group_1751" data-name="Group 1751" transform="translate(1201.218 1948.601) rotate(16)">
      <path id="Path_490-2" data-name="Path 490" class="cls-4" d="M21.929,72.043c30.823-27.178,19.391-40.3,24.326-54.215A26.871,26.871,0,0,1,82.345,2.277c15.07,6.509,15.293,26.347,7.742,38.509S74.76,59.033,74.312,72.044s14.162,28.6,0,59.238S23.4,161.158,10.753,146.348-8.9,99.222,21.929,72.043Z" transform="translate(0 0)"/>
      <path id="Path_491-2" data-name="Path 491" class="cls-2" d="M0,114.782s3.909-31.294,15.73-59.99S47.284,0,47.284,0" transform="translate(23.673 39.741)"/>
      <path id="Path_492-2" data-name="Path 492" class="cls-3" d="M0,16.769S11.665.438,20,0" transform="translate(28.471 117.881)"/>
      <path id="Path_495-2" data-name="Path 495" class="cls-3" d="M0,16.769S11.665.438,20,0" transform="translate(38.113 84.133)"/>
      <path id="Path_496-2" data-name="Path 496" class="cls-3" d="M0,5.5S3.229.438,11.564,0" transform="translate(54.987 61.652)"/>
      <path id="Path_497-2" data-name="Path 497" class="cls-3" d="M0,5.5S3.229.438,11.562,0" transform="translate(53.717 55.557) rotate(-69)"/>
      <path id="Path_493-2" data-name="Path 493" class="cls-3" d="M0,15.936S11.084.416,19,0" transform="translate(18.481 103.772) rotate(-69)"/>
      <path id="Path_494-2" data-name="Path 494" class="cls-3" d="M0,8.293S6.03.217,10.338,0" transform="translate(36.464 78.79) rotate(-69)"/>
    </g>
    <rect id="Rectangle_491" data-name="Rectangle 491" class="cls-5" width="103.588" height="246.886" rx="6" transform="translate(1101.138 1908.554)"/>
    <rect id="Rectangle_492" data-name="Rectangle 492" class="cls-6" width="93.23" height="212.356" transform="translate(1102.864 1941.357)"/>
    <rect id="Rectangle_493" data-name="Rectangle 493" class="cls-7" width="86.324" height="201.997" transform="translate(1102.864 1951.716)"/>
    <rect id="Rectangle_463" data-name="Rectangle 463" class="cls-5" width="279.689" height="300.406" rx="6" transform="translate(826.175 1855.033)"/>
    <rect id="Rectangle_464" data-name="Rectangle 464" class="cls-6" width="262.424" height="150.203" transform="translate(834.808 1884.383)"/>
    <rect id="Rectangle_465" data-name="Rectangle 465" class="cls-8" width="34.529" height="5.179" transform="translate(879.696 1906.828)"/>
    <rect id="Rectangle_468" data-name="Rectangle 468" class="cls-8" width="34.529" height="5.179" transform="translate(879.696 1936.177)"/>
    <rect id="Rectangle_471" data-name="Rectangle 471" class="cls-8" width="34.529" height="5.179" transform="translate(879.696 1965.527)"/>
    <rect id="Rectangle_466" data-name="Rectangle 466" class="cls-8" width="34.529" height="5.179" transform="translate(879.696 1913.733)"/>
    <rect id="Rectangle_469" data-name="Rectangle 469" class="cls-8" width="34.529" height="5.179" transform="translate(879.696 1943.083)"/>
    <rect id="Rectangle_472" data-name="Rectangle 472" class="cls-8" width="34.529" height="5.179" transform="translate(879.696 1972.433)"/>
    <rect id="Rectangle_467" data-name="Rectangle 467" class="cls-8" width="34.529" height="5.179" transform="translate(879.696 1920.639)"/>
    <rect id="Rectangle_470" data-name="Rectangle 470" class="cls-8" width="34.529" height="5.179" transform="translate(879.696 1949.989)"/>
    <rect id="Rectangle_473" data-name="Rectangle 473" class="cls-8" width="34.529" height="5.179" transform="translate(879.696 1979.339)"/>
    <rect id="Rectangle_474" data-name="Rectangle 474" class="cls-9" width="5.179" height="5.179" transform="translate(871.064 1906.828)"/>
    <rect id="Rectangle_475" data-name="Rectangle 475" class="cls-9" width="5.179" height="5.179" transform="translate(871.064 1936.177)"/>
    <rect id="Rectangle_476" data-name="Rectangle 476" class="cls-9" width="5.179" height="5.179" transform="translate(871.064 1965.527)"/>
    <rect id="Rectangle_477" data-name="Rectangle 477" class="cls-10" width="1.726" height="82.871" transform="translate(934.943 1903.374)"/>
    <rect id="Rectangle_478" data-name="Rectangle 478" class="cls-11" width="93.23" height="6.906" transform="translate(966.02 1918.913)"/>
    <rect id="Rectangle_479" data-name="Rectangle 479" class="cls-8" width="93.23" height="6.906" transform="translate(966.02 1929.271)"/>
    <rect id="Rectangle_480" data-name="Rectangle 480" class="cls-8" width="93.23" height="6.906" transform="translate(966.02 1939.63)"/>
    <rect id="Rectangle_481" data-name="Rectangle 481" class="cls-8" width="93.23" height="6.906" transform="translate(966.02 1949.989)"/>
    <rect id="Rectangle_482" data-name="Rectangle 482" class="cls-8" width="93.23" height="6.906" transform="translate(966.02 1960.348)"/>
    <circle id="Ellipse_137" data-name="Ellipse 137" class="cls-11" cx="3.453" cy="3.453" r="3.453" transform="translate(952.208 1918.913)"/>
    <circle id="Ellipse_138" data-name="Ellipse 138" class="cls-12" cx="3.453" cy="3.453" r="3.453" transform="translate(952.208 1929.271)"/>
    <circle id="Ellipse_139" data-name="Ellipse 139" class="cls-12" cx="3.453" cy="3.453" r="3.453" transform="translate(952.208 1939.63)"/>
    <circle id="Ellipse_140" data-name="Ellipse 140" class="cls-12" cx="3.453" cy="3.453" r="3.453" transform="translate(952.208 1949.989)"/>
    <circle id="Ellipse_141" data-name="Ellipse 141" class="cls-12" cx="3.453" cy="3.453" r="3.453" transform="translate(952.208 1960.348)"/>
    <rect id="Rectangle_483" data-name="Rectangle 483" class="cls-6" width="262.424" height="107.041" transform="translate(834.808 2041.492)"/>
    <path id="Path_784" data-name="Path 784" class="cls-13" d="M-1400.2,9070.526c2.072-.69,8.632,6.906,15.193,1.729s25.552-29.354,42.816-26.936,29.35,28.66,43.853,25.207,25.9-31.422,48.687-32.112,37.292,12.431,51.449,4.143,24.17-24.861,34.184-25.206v61.809H-1400.2Z" transform="translate(2246.748 -6947.631)"/>
    <rect id="Rectangle_484" data-name="Rectangle 484" class="cls-9" width="82.871" height="37.982" transform="translate(855.525 2051.851)"/>
    <rect id="Rectangle_485" data-name="Rectangle 485" class="cls-9" width="100.135" height="36.256" transform="translate(890.055 2119.184)"/>
    <rect id="Rectangle_486" data-name="Rectangle 486" class="cls-6" width="44.888" height="6.906" transform="translate(864.158 2057.031)"/>
    <rect id="Rectangle_487" data-name="Rectangle 487" class="cls-6" width="69.059" height="5.179" transform="translate(864.158 2065.663)"/>
    <rect id="Rectangle_488" data-name="Rectangle 488" class="cls-6" width="69.059" height="5.179" transform="translate(864.158 2072.569)"/>
    <rect id="Rectangle_489" data-name="Rectangle 489" class="cls-6" width="69.059" height="5.179" transform="translate(864.158 2079.475)"/>
    <rect id="Rectangle_490" data-name="Rectangle 490" class="cls-6" width="29.35" height="29.35" transform="translate(895.234 2122.637)"/>
    <path id="Path_785" data-name="Path 785" class="cls-6" d="M5,0H58.521V6.906H5Z" transform="translate(924.764 2127.816)"/>
    <path id="Path_786" data-name="Path 786" class="cls-6" d="M5,0H58.521V6.906H5Z" transform="translate(924.764 2139.901)"/>
    <path id="Path_788" data-name="Path 788" class="cls-14" d="M-1303.764,8996.135s-3.453,4.605,1.381,27.625,9.438,78.955,9.438,78.955h15.193s5.986-70.67,8.287-76.424c1.754-4.385,3.453-27.74,1.611-30.156Z" transform="translate(2315.938 -6961.317)"/>
    <path id="Path_787" data-name="Path 787" class="cls-15" d="M-1311.6,8940.334h4.834s3.683,21.869,8.517,24.4a59.655,59.655,0,0,0,11.51,4.145l29.7,8.518s6.676,2.991,6.676,13.122v56.4h-8.057l-2.3-47.882s-3.913,10.591-4.144,14.963.921,18.417,2.532,21.868h-37.983s5.985-16.342,6.445-26.01,0-25.783,0-25.783-15.884-12.89-16.114-20.487Z" transform="translate(2311.114 -7000.128)"/>
    <ellipse id="Ellipse_142" data-name="Ellipse 142" class="cls-16" cx="5.179" cy="12.085" rx="5.179" ry="12.085" transform="translate(1029.624 1945.476) rotate(22)"/>
    <path id="Path_789" data-name="Path 789" class="cls-17" d="M-1272.956,8949.023s-1.842-5.755-6.906-5.755-7.826.69-9.438,2.993-2.763,13.582-5.985,15.423-.69,12.2-2.992,14.272-1.841,8.979,0,11.05.92,7.364,2.992,8.057,4.834-4.145,5.985-2.763,3.913,7.135,6.215,6.676,6.215-6.905,8.748-6.676,7.366-3.682,7.136-5.294,3.453-4.836,2.993-8.288-5.295-8.977-5.755-15.883A57.322,57.322,0,0,0-1272.956,8949.023Z" transform="translate(2319.659 -6997.999)"/>
    <path id="Path_790" data-name="Path 790" class="cls-16" d="M-1306.645,8948.052l.691-11.049s-1.381-8.52-2.072-7.138,0,7.138,0,7.138-4.374,1.38-4.374,2.76,1.842,8.289,1.842,8.289Z" transform="translate(2310.532 -7007.845)"/>
    <path id="Path_791" data-name="Path 791" class="cls-16" d="M-1279.288,9002.068s-1.346,7.77-.655,8,2.763-1.611,2.763-1.611-2.993,4.141-2.763,5.293-1.842,4.373,0,3.453,5.525-5.754,5.985-7.135-.583-8-.583-8Z" transform="translate(2333.552 -6955.283)"/>
    <path id="Path_792" data-name="Path 792" class="cls-18" d="M-1297.734,9057.869v4.489h5.985v-4.489Z" transform="translate(2321.188 -6916.473)"/>
    <path id="Path_793" data-name="Path 793" class="cls-18" d="M-1292.8,9057.869v4.719h5.985v-4.719Z" transform="translate(2324.771 -6916.473)"/>
    <path id="Path_794" data-name="Path 794" class="cls-19" d="M-1296.451,9060.469s-4.374,2.071-6.215,8.746h15.883v-8.746Z" transform="translate(2317.604 -6914.583)"/>
    <path id="Path_795" data-name="Path 795" class="cls-20" d="M-1293.467,9060.6v8.516h8.287c3.914-3.129,0-8.516,0-8.516Z" transform="translate(2324.287 -6914.485)"/>
    <path id="Path_796" data-name="Path 796" class="cls-21" d="M0,0H.523V86.093H0Z" transform="translate(1029.899 2055.304)"/>
    <circle id="Ellipse_143" data-name="Ellipse 143" class="cls-6" cx="5.179" cy="5.179" r="5.179" transform="translate(839.987 1865.392)"/>
    <circle id="Ellipse_144" data-name="Ellipse 144" class="cls-6" cx="5.179" cy="5.179" r="5.179" transform="translate(858.978 1865.392)"/>
    <circle id="Ellipse_145" data-name="Ellipse 145" class="cls-6" cx="5.179" cy="5.179" r="5.179" transform="translate(877.97 1865.392)"/>
    <path id="Path_798" data-name="Path 798" class="cls-16" d="M-1429.056,9008.439l12.983,2.763s2.21-6.078,7.459-7.459a43,43,0,0,0-.7-16.592l-13.944,1.676V8999.6s-3.315,8.84-5.8,8.84Z" transform="translate(2224.983 -6969.572)"/>
    <path id="Path_797" data-name="Path 797" class="cls-17" d="M-1424.536,9007.063c-2.21-2.212-9.668-17.343-4.144-21.485s6.906,0,6.906,0,3.591-6.076,12.983,0c0,0,4.7.554,6.63-2.484,0,0,3.867,6.073-9.668,9.115l-3.867,9.116s-1.657-5.8-3.591-5.8S-1422.326,9009.275-1424.536,9007.063Z" transform="translate(2224.607 -6972.677)"/>
    <path id="Path_802" data-name="Path 802" class="cls-22" d="M-1408.686,9060.258v2.826h6.906v-2.826Z" transform="translate(2240.583 -6917.509)"/>
    <path id="Path_803" data-name="Path 803" class="cls-16" d="M-1450.743,9053.287h2.94v7.533l-2.94-2.206Z" transform="translate(2210.03 -6921.524)"/>
    <path id="Path_800" data-name="Path 800" class="cls-14" d="M-1402.356,9032.248s26.242-1.1,28.452,0,8.564,4.418,7.459,10.772-5.249,37.568-5.249,37.568h-8.839s-2.762-25.969,0-33.426l-29,6.355s5.8,30.659,4.972,32.042-.276,4.7-4.972,6.354-13.812,0-13.812,0l-25.69-14.09v-9.391l25.69,9.391s-9.669-24.308-9.945-27.346,0-9.467,0-9.467Z" transform="translate(2211.267 -6937.167)"/>
    <path id="Path_799" data-name="Path 799" class="cls-15" d="M-1407.937,9002.248s10.411,15.75,4.886,31.493-3.527,25.976-3.527,25.976-11.113.542-16.361,4.134-19.06,1.383-19.06,1.383,13.536-28.73,13.812-47.792,8.563-17.955,8.563-17.955Z" transform="translate(2216.381 -6960.619)"/>
    <path id="Path_801" data-name="Path 801" class="cls-16" d="M-1418.41,9009.92l-6.63,7.184s13.812,13.813,21.823,14.641,29.833-1.935,29.833-1.935,2.21,3.313,7.182,0,7.458-4.143,6.077-5.524-11.05,0-11.05,0,2.21-2.486,2.21-3.868-6.354,3.04-7.458,5.525c0,0-26.243-2.488-26.8-3.316S-1418.41,9009.92-1418.41,9009.92Z" transform="translate(2228.702 -6953.028)"/>
    <path id="Path_804" data-name="Path 804" class="cls-19" d="M-1445.346,9053.293s-9.668-2.368-11.641-2.171l-1.184,19.729s1.776,4.737,3.354,5.723,5.722,0,5.722,0,1.578-5.13,0-5.723,3.749-6.708,3.749-6.708Z" transform="translate(2204.633 -6923.109)"/>
    <path id="Path_805" data-name="Path 805" class="cls-19" d="M-1408.914,9060.771s-2.96,4.836-2.368,9.57h29s0-2.369-1.579-3.156a62.662,62.662,0,0,0-7.893-2.764c-1.578-.395-7.5-3.65-7.5-3.65Z" transform="translate(2238.641 -6916.085)"/>
    <circle id="Ellipse_146" data-name="Ellipse 146" class="cls-6" cx="3.453" cy="3.453" r="3.453" transform="translate(1147.752 1922.366)"/>
    <circle id="Ellipse_147" data-name="Ellipse 147" class="cls-6" cx="3.453" cy="3.453" r="3.453" transform="translate(1161.564 1922.366)"/>
    <circle id="Ellipse_148" data-name="Ellipse 148" class="cls-6" cx="3.453" cy="3.453" r="3.453" transform="translate(1175.376 1922.366)"/>
    <path id="Path_812" data-name="Path 812" class="cls-18" d="M-1245.463,9057.586l1.381,2.59,4.057-1.985-1.381-2.591Z" transform="translate(2436.852 -6919.842)"/>
    <path id="Path_811" data-name="Path 811" class="cls-18" d="M-1274.713,9057.361v2.572h4.662v-2.572Z" transform="translate(2415.603 -6918.564)"/>
    <path id="Path_807" data-name="Path 807" class="cls-14" d="M-1259,9004.561s-12.707,38.4-14.088,48.343-3.315,42.815-3.315,42.815h9.944l9.392-52.21,4.143-5.523s5.249,18.229,10.221,25.413,18.231,32.32,18.231,32.32l9.668-4.144s-17.679-34.806-19.337-48.066-2.512-17.97-2.512-17.97,6.932-11.309,4.17-20.979Z" transform="translate(2414.377 -6956.92)"/>
    <path id="Path_815" data-name="Path 815" class="cls-23" d="M21,0A36.256,36.256,0,0,1,47.9,60.565L21,33.976Z" transform="translate(1109.035 1962.075)"/>
    <path id="Path_816" data-name="Path 816" class="cls-23" d="M60.165,48.255a35.788,35.788,0,0,1-23.91,9A36.256,36.256,0,0,1,0,21H34.737Z" transform="translate(1093.779 1977.331)"/>
    <path id="Path_817" data-name="Path 817" class="cls-23" d="M33.937.16v33.7H-.04C-.04,13.837,13.913.16,33.937.16Z" transform="translate(1093.75 1962.191)"/>
    <path id="Path_806" data-name="Path 806" class="cls-15" d="M-1240.18,8966.641v3.594s-13.536,11.324-14.088,24.584-13.052,38.951-13.052,38.951h29.35s2.486-22.379,9.945-34.256,4.144-13.121,3.039-17.266-3.039-9.529-3.039-9.529v-4.145Z" transform="translate(2420.973 -6984.47)"/>
    <path id="Path_808" data-name="Path 808" class="cls-16" d="M-1234.024,8979.841l5.525,7.184s-15.193,13.259-25.137,17.68-13.812,6.075-13.812,6.075-11.049,1.935-16.022,0,0-1.933,0-1.933h10.221s-3.038-5.524,0-4.143a6.322,6.322,0,0,1,3.591,4.143s22.928-15.192,25.966-18.508S-1234.024,8979.841-1234.024,8979.841Z" transform="translate(2407.635 -6974.881)"/>
    <path id="Path_809" data-name="Path 809" class="cls-19" d="M-1267.683,9058.881l-3.591,4.419h-8.563s-7.182,1.933-8.563,6.631v2.486h30.11c3.427-8.235,0-13.536,0-13.536Z" transform="translate(2405.659 -6917.46)"/>
    <path id="Path_810" data-name="Path 810" class="cls-19" d="M-1230.143,9056.32l-9.116,3.867-1.934,5.248h-8.011s-5.525.83-6.077,8.288h17.955l11.878-6.628C-1223.85,9061.551-1230.143,9056.32-1230.143,9056.32Z" transform="translate(2429.72 -6919.319)"/>
    <path id="Path_813" data-name="Path 813" class="cls-16" d="M-1254.919,8955.651s-.793,7.747,2.815,13.253a8.573,8.573,0,0,0,5.357,3.553v5.982l8.632,1.382.691-6.675s4.373-2.994,2.993-16.806l-2.993-4.833-13.582-.692Z" transform="translate(2429.928 -6995.964)"/>
    <path id="Path_814" data-name="Path 814" class="cls-17" d="M-1240.944,8960.246s-13.7,4.83-16,.8,4.029-12.315,7.481-12.429,12.315,2.761,13.121,2.876,8.747-2.99,6.1,5.871-1.841,17.149-3.683,17.266-6.1-.92-5.985-3.109S-1240.944,8960.246-1240.944,8960.246Z" transform="translate(2428.154 -6997.566)"/>
  </g>
</svg>
