<svg xmlns="http://www.w3.org/2000/svg" width="52.053" height="53.808" viewBox="0 0 52.053 53.808">
  <g id="Group_12221" data-name="Group 12221" transform="translate(-798.369 -1862.596)">
    <g id="Group_11232" data-name="Group 11232" transform="translate(721.079 -657.813)">
      <path id="Path_11582" data-name="Path 11582" d="M29.654,2.513a2,2,0,0,0-2.755,0A29.921,29.921,0,0,1,5.872,10.735,2,2,0,0,0,3.945,12.11a34.075,34.075,0,0,0,23.832,43.6,2,2,0,0,0,1,0,34.075,34.075,0,0,0,23.832-43.6,2,2,0,0,0-1.927-1.377l-.382,0A29.92,29.92,0,0,1,29.654,2.513Zm8.259,21.4a2,2,0,1,0-3.257-2.328L26.018,33.676l-4.335-4.335a2,2,0,0,0-2.83,2.83l6.006,6.006a2,2,0,0,0,3.043-.251l10.01-14.014Z" transform="translate(75.04 2518.445)" fill="#ef6c00"/>
      <path id="Path_11583" data-name="Path 11583" d="M14.756,22.379l4.409,4.409L26.513,16.5M20.635,2.714A23.433,23.433,0,0,1,4.172,9.153a23.538,23.538,0,0,0,16.463,30.12A23.54,23.54,0,0,0,37.1,9.151h-.3A23.425,23.425,0,0,1,20.635,2.714Z" transform="translate(82.681 2527.839)" fill="none" stroke="#fff" stroke-linecap="round" stroke-linejoin="round" stroke-width="1.5"/>
    </g>
  </g>
</svg>
