<svg xmlns="http://www.w3.org/2000/svg" width="64.441" height="64.441" viewBox="0 0 64.441 64.441">
  <g id="Group_12220" data-name="Group 12220" transform="translate(-300 -1864.392)">
    <g id="Group_11233" data-name="Group 11233" transform="translate(48 -531.608)">
      <g id="Group_10950" data-name="Group 10950" transform="translate(252 2396)">
        <path id="Path_11578" data-name="Path 11578" d="M25.481,20.17A48.248,48.248,0,0,1,63.64,1.5a2.3,2.3,0,0,1,2.3,2.3,48.254,48.254,0,0,1-18.67,38.162A20.713,20.713,0,0,1,26.816,65.941a2.3,2.3,0,0,1-2.3-2.3V50.963a48.6,48.6,0,0,1-8.034-8.037H3.8a2.3,2.3,0,0,1-2.3-2.3A20.713,20.713,0,0,1,25.481,20.17ZM42.927,17.61a6.9,6.9,0,1,0,6.9,6.9A6.9,6.9,0,0,0,42.927,17.61Z" transform="translate(-1.5 -1.5)" fill="#ef6c00" fill-rule="evenodd"/>
        <path id="Path_11579" data-name="Path 11579" d="M11.488,20.038a2.3,2.3,0,0,0-2.753-3.692A16.089,16.089,0,0,0,2.445,31.758a2.3,2.3,0,0,0,1.918,1.924,16.089,16.089,0,0,0,15.411-6.294,2.3,2.3,0,1,0-3.689-2.753,11.489,11.489,0,0,1-9.23,4.634,11.491,11.491,0,0,1,4.634-9.23Z" transform="translate(0.05 28.268)" fill="#ef6c00"/>
      </g>
      <path id="Path_11580" data-name="Path 11580" d="M42.151,38.5A17.947,17.947,0,0,1,24.683,60.576V46.219M42.151,38.5A44.806,44.806,0,0,0,60.576,2.25,44.806,44.806,0,0,0,24.327,20.675M42.154,38.5a44.645,44.645,0,0,1-17.471,7.717m-.356-25.544A17.947,17.947,0,0,0,2.25,38.143H16.607m7.72-17.468A44.648,44.648,0,0,0,16.61,38.143m8.073,8.076c-.308.063-.619.123-.93.179a45.136,45.136,0,0,1-7.322-7.322q.085-.468.179-.933m-6.7,7.149a13.439,13.439,0,0,0-5.255,12.88,13.439,13.439,0,0,0,12.88-5.258M44.873,22.44a4.487,4.487,0,1,1-4.487-4.487A4.487,4.487,0,0,1,44.873,22.44Z" transform="translate(252.238 2396.238)" fill="none" stroke="#fff" stroke-linecap="round" stroke-linejoin="round" stroke-width="1.5"/>
    </g>
  </g>
</svg>
