<svg xmlns="http://www.w3.org/2000/svg" width="62.722" height="62.722" viewBox="0 0 62.722 62.722">
  <g id="Group_12218" data-name="Group 12218" transform="translate(-299.25 -1700.639)">
    <g id="Group_11203" data-name="Group 11203" transform="translate(300 1701.389)">
      <g id="Group_11113" data-name="Group 11113" transform="translate(0)">
        <circle id="Ellipse_1557" data-name="Ellipse 1557" cx="9.737" cy="9.737" r="9.737" transform="translate(19.475 27.842)" fill="#ef6c00" stroke="#fff" stroke-miterlimit="10" stroke-width="1.5"/>
        <line id="Line_304" data-name="Line 304" x1="8.338" y1="8.367" transform="translate(36.179 44.517)" fill="none" stroke="#fff" stroke-miterlimit="10" stroke-width="1.5"/>
        <path id="Path_11947" data-name="Path 11947" d="M32.111,7.068,26.543,1.5H1.5V57.154a5.539,5.539,0,0,0,5.568,5.568H57.154a5.539,5.539,0,0,0,5.568-5.568V7.068Z" transform="translate(-1.5 -1.5)" fill="#ef6c00" stroke="#fff" stroke-miterlimit="10" stroke-width="1.5"/>
        <line id="Line_305" data-name="Line 305" x2="61.222" transform="translate(0 16.705)" fill="none" stroke="#fff" stroke-miterlimit="10" stroke-width="1.5"/>
      </g>
      <g id="Group_11112" data-name="Group 11112">
        <circle id="Ellipse_1557-2" data-name="Ellipse 1557" cx="9.737" cy="9.737" r="9.737" transform="translate(19.475 27.842)" fill="none" stroke="#fff" stroke-miterlimit="10" stroke-width="1.5"/>
        <line id="Line_304-2" data-name="Line 304" x1="8.338" y1="8.367" transform="translate(36.179 44.517)" fill="none" stroke="#fff" stroke-miterlimit="10" stroke-width="1.5"/>
        <path id="Path_11947-2" data-name="Path 11947" d="M32.111,7.068,26.543,1.5H1.5V57.154a5.539,5.539,0,0,0,5.568,5.568H57.154a5.539,5.539,0,0,0,5.568-5.568V7.068Z" transform="translate(-1.5 -1.5)" fill="none" stroke="#fff" stroke-miterlimit="10" stroke-width="1.5"/>
        <line id="Line_305-2" data-name="Line 305" x2="61.222" transform="translate(0 16.705)" fill="none" stroke="#fff" stroke-miterlimit="10" stroke-width="1.5"/>
      </g>
    </g>
  </g>
</svg>
