<svg xmlns="http://www.w3.org/2000/svg" width="42.496" height="65.94" viewBox="0 0 42.496 65.94">
  <g id="Group_12219" data-name="Group 12219" transform="translate(-807.25 -1698.219)">
    <g id="Group_11230" data-name="Group 11230" transform="translate(774 -305.121)">
      <g id="Group_11117" data-name="Group 11117" transform="translate(34 2004.09)">
        <g id="Group_11115" data-name="Group 11115" transform="translate(0)">
          <rect id="Rectangle_4603" data-name="Rectangle 4603" width="40.996" height="38.081" transform="translate(0 26.359)" fill="#ef6c00" stroke="#fff" stroke-miterlimit="10" stroke-width="1.5"/>
          <path id="Path_11948" data-name="Path 11948" d="M36.5,27.859H7.23V16.137A14.637,14.637,0,0,1,21.867,1.5h0A14.637,14.637,0,0,1,36.5,16.137" transform="translate(-1.369 -1.5)" fill="#ef6c00" stroke="#fff" stroke-miterlimit="10" stroke-width="1.5"/>
          <circle id="Ellipse_1558" data-name="Ellipse 1558" cx="2.915" cy="2.915" r="2.915" transform="translate(17.583 38.081)" fill="#ef6c00" stroke="#fff" stroke-miterlimit="10" stroke-width="1.5"/>
          <line id="Line_306" data-name="Line 306" y1="11.722" transform="translate(20.498 43.942)" fill="none" stroke="#fff" stroke-miterlimit="10" stroke-width="1.5"/>
        </g>
      </g>
      <g id="Group_11116" data-name="Group 11116" transform="translate(34 2004.09)">
        <g id="Group_11115-2" data-name="Group 11115" transform="translate(0)">
          <rect id="Rectangle_4603-2" data-name="Rectangle 4603" width="40.996" height="38.081" transform="translate(0 26.359)" fill="none" stroke="#fff" stroke-miterlimit="10" stroke-width="1.5"/>
          <path id="Path_11948-2" data-name="Path 11948" d="M36.5,27.859H7.23V16.137A14.637,14.637,0,0,1,21.867,1.5h0A14.637,14.637,0,0,1,36.5,16.137" transform="translate(-1.369 -1.5)" fill="none" stroke="#fff" stroke-miterlimit="10" stroke-width="1.5"/>
          <circle id="Ellipse_1558-2" data-name="Ellipse 1558" cx="2.915" cy="2.915" r="2.915" transform="translate(17.583 38.081)" fill="none" stroke="#fff" stroke-miterlimit="10" stroke-width="1.5"/>
          <line id="Line_306-2" data-name="Line 306" y1="11.722" transform="translate(20.498 43.942)" fill="none" stroke="#fff" stroke-miterlimit="10" stroke-width="1.5"/>
        </g>
      </g>
    </g>
  </g>
</svg>
