<svg xmlns="http://www.w3.org/2000/svg" xmlns:xlink="http://www.w3.org/1999/xlink" viewBox="0 0 64.106 69.6">
  <defs>
    <style>
      .cls-1 {
        fill: #1caffd;
      }

      .cls-2 {
        fill: url(#linear-gradient);
      }

      .cls-3 {
        fill: #6dccff;
      }
    </style>
    <linearGradient id="linear-gradient" y1="0.5" x2="0" y2="1.339" gradientUnits="objectBoundingBox">
      <stop offset="0" stop-color="#1caffd"/>
      <stop offset="1" stop-color="#0067b6"/>
    </linearGradient>
  </defs>
  <g id="stopwatch" transform="translate(-1101 -3118)">
    <circle id="Ellipse_208" data-name="Ellipse 208" class="cls-1" cx="32.053" cy="32.053" r="32.053" transform="translate(1101 3123.495)"/>
    <path id="Path_933" data-name="Path 933" class="cls-2" d="M35,0a32.053,32.053,0,0,1,0,64.106Z" transform="translate(1098.053 3123.495)"/>
    <circle id="Ellipse_209" data-name="Ellipse 209" class="cls-3" cx="2.289" cy="2.289" r="2.289" transform="translate(1131.221 3128.99)"/>
    <circle id="Ellipse_210" data-name="Ellipse 210" class="cls-3" cx="2.289" cy="2.289" r="2.289" transform="translate(1144.042 3132.653)"/>
    <circle id="Ellipse_211" data-name="Ellipse 211" class="cls-3" cx="2.289" cy="2.289" r="2.289" transform="translate(1152.285 3140.895)"/>
    <circle id="Ellipse_212" data-name="Ellipse 212" class="cls-3" cx="2.289" cy="2.289" r="2.289" transform="translate(1155.948 3153.716)"/>
    <circle id="Ellipse_213" data-name="Ellipse 213" class="cls-3" cx="2.289" cy="2.289" r="2.289" transform="translate(1152.285 3166.537)"/>
    <circle id="Ellipse_214" data-name="Ellipse 214" class="cls-3" cx="2.289" cy="2.289" r="2.289" transform="translate(1143.127 3175.695)"/>
    <circle id="Ellipse_215" data-name="Ellipse 215" class="cls-3" cx="2.289" cy="2.289" r="2.289" transform="translate(1131.221 3179.358)"/>
    <circle id="Ellipse_216" data-name="Ellipse 216" class="cls-3" cx="2.289" cy="2.289" r="2.289" transform="translate(1118.4 3175.695)"/>
    <circle id="Ellipse_217" data-name="Ellipse 217" class="cls-3" cx="2.289" cy="2.289" r="2.289" transform="translate(1109.242 3166.537)"/>
    <circle id="Ellipse_218" data-name="Ellipse 218" class="cls-3" cx="2.289" cy="2.289" r="2.289" transform="translate(1105.579 3153.716)"/>
    <circle id="Ellipse_219" data-name="Ellipse 219" class="cls-3" cx="2.289" cy="2.289" r="2.289" transform="translate(1109.242 3140.895)"/>
    <circle id="Ellipse_220" data-name="Ellipse 220" class="cls-3" cx="2.289" cy="2.289" r="2.289" transform="translate(1117.484 3131.737)"/>
    <path id="Path_934" data-name="Path 934" class="cls-3" d="M2.36,0S-.281,11.174.025,14.47A8.046,8.046,0,0,0,2.36,19.537,11.224,11.224,0,0,0,4.237,14.47C4.3,12.028,2.36,0,2.36,0Z" transform="matrix(0.53, 0.848, -0.848, 0.53, 1148.216, 3145.139)"/>
    <path id="Union_27" data-name="Union 27" class="cls-1" d="M1.831,6.41V1.832H0V0H10.989V1.832H9.157V6.41Z" transform="translate(1127.559 3118)"/>
    <rect id="Rectangle_544" data-name="Rectangle 544" class="cls-1" width="1.832" height="5.495" transform="matrix(0.809, 0.588, -0.588, 0.809, 1151.327, 3123.481)"/>
    <rect id="Rectangle_545" data-name="Rectangle 545" class="cls-1" width="4.579" height="2.747" transform="matrix(0.799, 0.602, -0.602, 0.799, 1151.19, 3121.293)"/>
  </g>
</svg>
