<svg xmlns="http://www.w3.org/2000/svg" viewBox="0 0 141.129 105.407">
  <defs>
    <style>
      .cls-1 {
        fill: #1caffd;
      }

      .cls-2 {
        fill: #008bd4;
      }

      .cls-3 {
        fill: #f80;
      }

      .cls-4 {
        fill: #ffa844;
      }
    </style>
  </defs>
  <g id="first" transform="translate(0 -35.104)">
    <path id="Path_855" data-name="Path 855" class="cls-1" d="M188,125.906a.713.713,0,0,1-.757-.656v-7.471a.713.713,0,0,1,.757-.656h11.755V87.512c0-.311,0-1.832.01-3.414l-9.842,7.148a1.46,1.46,0,0,1-.854.27,1.4,1.4,0,0,1-1.062-.458l-4.89-5.61a1.047,1.047,0,0,1,.2-1.572l18.33-13.447a1.46,1.46,0,0,1,.86-.273h8.433a1.252,1.252,0,0,1,1.33,1.151v45.818h10.147a.713.713,0,0,1,.757.656v7.471a.713.713,0,0,1-.757.656H188Z" transform="translate(-132.447 -26.688)"/>
    <path id="Path_856" data-name="Path 856" class="cls-2" d="M266.847,117.123H256.7V71.3a1.25,1.25,0,0,0-1.33-1.151h-8.433a1.459,1.459,0,0,0-.86.273l-1.894,1.389v41.039c0,2.357,2.208,4.268,4.931,4.268h5.667v8.782h12.065a.712.712,0,0,0,.757-.656v-7.471A.712.712,0,0,0,266.847,117.123Z" transform="translate(-176.876 -26.687)"/>
    <g id="Group_1754" data-name="Group 1754" transform="translate(0 43.778)">
      <path id="Path_857" data-name="Path 857" class="cls-3" d="M38.284,80.774a92.467,92.467,0,0,1,11.4-9.2c.483-.33,1.179.065,1.017.579A43.455,43.455,0,0,1,38.173,92.1,63.767,63.767,0,0,1,38.284,80.774Z" transform="translate(-27.507 -71.456)"/>
      <path id="Path_858" data-name="Path 858" class="cls-3" d="M10.666,119.515a84.287,84.287,0,0,1-9.43-11.782.663.663,0,0,0-1.192.243c-.5,8.552,3.275,18.558,12.472,22.594A64.685,64.685,0,0,1,10.666,119.515Z" transform="translate(0 -98.865)"/>
      <path id="Path_859" data-name="Path 859" class="cls-3" d="M45.4,167.3a78.638,78.638,0,0,1,7.732-11.366.665.665,0,0,1,1.163.293c.36,7.387-1.1,15.2-5.194,21.681A67.209,67.209,0,0,1,45.4,167.3Z" transform="translate(-32.887 -135.603)"/>
      <path id="Path_860" data-name="Path 860" class="cls-3" d="M21.937,220.919a99.8,99.8,0,0,1-12.971-8.591c-.47-.366-1.207.016-1.048.546,2.454,8.168,9.473,16.551,19.466,18.031A70.848,70.848,0,0,1,21.937,220.919Z" transform="translate(-5.719 -178.607)"/>
      <path id="Path_861" data-name="Path 861" class="cls-3" d="M78.59,248.81a70.3,70.3,0,0,1,3.6-12.73.678.678,0,0,1,1.21-.012C86.237,243,87.385,250.817,85.674,258A75.025,75.025,0,0,1,78.59,248.81Z" transform="translate(-56.927 -196.514)"/>
      <path id="Path_862" data-name="Path 862" class="cls-3" d="M61.781,313.314A112.4,112.4,0,0,1,46.515,308.4c-.573-.23-1.147.321-.817.788,5.1,7.2,14.644,13.428,24.7,12.354A79.444,79.444,0,0,1,61.781,313.314Z" transform="translate(-33.032 -251.824)"/>
      <path id="Path_863" data-name="Path 863" class="cls-3" d="M133.123,320a67.037,67.037,0,0,1-.888-13.136.663.663,0,0,1,1.153-.317c5.078,5.959,8.866,13.2,9.773,20.537A84.122,84.122,0,0,1,133.123,320Z" transform="translate(-95.76 -250.283)"/>
      <path id="Path_864" data-name="Path 864" class="cls-3" d="M440.212,80.774a92.46,92.46,0,0,0-11.4-9.2c-.483-.33-1.179.065-1.017.579A43.455,43.455,0,0,0,440.324,92.1,63.766,63.766,0,0,0,440.212,80.774Z" transform="translate(-309.86 -71.456)"/>
      <path id="Path_865" data-name="Path 865" class="cls-3" d="M468.445,119.515a84.282,84.282,0,0,0,9.43-11.782.663.663,0,0,1,1.192.243c.5,8.552-3.275,18.558-12.472,22.594A64.68,64.68,0,0,0,468.445,119.515Z" transform="translate(-337.982 -98.865)"/>
      <path id="Path_866" data-name="Path 866" class="cls-3" d="M443.085,167.3a78.639,78.639,0,0,0-7.732-11.366.665.665,0,0,0-1.163.293c-.36,7.387,1.1,15.2,5.194,21.681A67.22,67.22,0,0,0,443.085,167.3Z" transform="translate(-314.47 -135.603)"/>
      <path id="Path_867" data-name="Path 867" class="cls-3" d="M438.851,220.919a99.8,99.8,0,0,0,12.971-8.591c.47-.366,1.207.016,1.048.546-2.454,8.168-9.473,16.551-19.466,18.031A70.854,70.854,0,0,0,438.851,220.919Z" transform="translate(-313.939 -178.607)"/>
      <path id="Path_868" data-name="Path 868" class="cls-3" d="M412.684,248.81a70.3,70.3,0,0,0-3.6-12.73.678.678,0,0,0-1.21-.012C405.038,243,403.889,250.817,405.6,258A75.024,75.024,0,0,0,412.684,248.81Z" transform="translate(-293.218 -196.514)"/>
      <path id="Path_869" data-name="Path 869" class="cls-3" d="M385.061,313.314a112.4,112.4,0,0,0,15.266-4.917c.573-.23,1.147.321.817.788-5.1,7.2-14.644,13.428-24.7,12.354A79.466,79.466,0,0,0,385.061,313.314Z" transform="translate(-272.681 -251.824)"/>
      <path id="Path_870" data-name="Path 870" class="cls-3" d="M350.076,320a67.031,67.031,0,0,0,.888-13.136.663.663,0,0,0-1.153-.317c-5.078,5.959-8.866,13.2-9.773,20.537A84.119,84.119,0,0,0,350.076,320Z" transform="translate(-246.309 -250.283)"/>
    </g>
    <path id="Path_871" data-name="Path 871" class="cls-4" d="M154.558,53.247c0-.036,0-.072,0-.109A70.816,70.816,0,0,0,151,36.427a2.2,2.2,0,0,0-2.646-1.246,1.819,1.819,0,0,0-1.44,2.29,67.583,67.583,0,0,1,3.371,15.781c0,.04,0,.079.006.119A62.309,62.309,0,0,1,150.4,64.4a.024.024,0,0,0,0,0,63.234,63.234,0,0,1-1.8,10.759h0A65.764,65.764,0,0,1,145,85.491v0h0a69.311,69.311,0,0,1-5.305,9.723h0a73.418,73.418,0,0,1-6.9,8.951v0h0a77.768,77.768,0,0,1-8.388,8.006h0a82.248,82.248,0,0,1-9.773,6.9l-.038.026-.038.023a43.6,43.6,0,0,1-12.535,6.174,43.181,43.181,0,0,0-9.294,4.05,43.181,43.181,0,0,0-9.294-4.05,43.61,43.61,0,0,1-12.535-6.174l-.038-.022-.038-.026a82.223,82.223,0,0,1-9.773-6.9h0a77.742,77.742,0,0,1-8.388-8.006h0v0a73.39,73.39,0,0,1-6.9-8.951h0a69.284,69.284,0,0,1-5.305-9.723h0v0a65.738,65.738,0,0,1-3.606-10.328h0a63.208,63.208,0,0,1-1.8-10.759.028.028,0,0,1,0,0,62.308,62.308,0,0,1,.107-11.027c0-.04,0-.08.006-.119a67.587,67.587,0,0,1,3.371-15.781,1.819,1.819,0,0,0-1.44-2.29,2.2,2.2,0,0,0-2.646,1.246,70.817,70.817,0,0,0-3.55,16.711c0,.037,0,.073,0,.109a65.718,65.718,0,0,0-.1,11.387v0a66.5,66.5,0,0,0,1.889,11.3v.008A69.109,69.109,0,0,0,36.462,86.8v0a72.807,72.807,0,0,0,5.569,10.212v0a77.067,77.067,0,0,0,7.248,9.406h0a81.676,81.676,0,0,0,8.815,8.417l0,0a86.407,86.407,0,0,0,10.232,7.225,47.913,47.913,0,0,0,13.588,6.676,39.783,39.783,0,0,1,7.09,2.912c-2.2,1.461-4.753,3.294-7.78,5.638a1.676,1.676,0,0,0-.167,2.6,2.284,2.284,0,0,0,1.588.614,2.318,2.318,0,0,0,1.419-.47c3.509-2.718,6.314-4.7,8.651-6.2,2.336,1.494,5.141,3.481,8.65,6.2a2.32,2.32,0,0,0,1.419.47,2.284,2.284,0,0,0,1.588-.614,1.675,1.675,0,0,0-.167-2.6c-3.026-2.344-5.577-4.177-7.78-5.638a39.774,39.774,0,0,1,7.09-2.912,47.9,47.9,0,0,0,13.588-6.676,86.407,86.407,0,0,0,10.232-7.225l0,0a81.677,81.677,0,0,0,8.815-8.417h0a77.068,77.068,0,0,0,7.248-9.406v0A72.834,72.834,0,0,0,148.977,86.8v0a69.108,69.108,0,0,0,3.786-10.853v-.008a66.469,66.469,0,0,0,1.889-11.3v0A65.694,65.694,0,0,0,154.558,53.247Z" transform="translate(-22.156 0)"/>
  </g>
</svg>
