<svg id="Layer_1" data-name="Layer 1" xmlns="http://www.w3.org/2000/svg" xmlns:xlink="http://www.w3.org/1999/xlink" viewBox="0 0 64.26 80.64"><defs><style>.cls-1{fill:none;}.cls-2{fill:url(#linear-gradient);}.cls-3{fill:#fefefe;}.cls-4{fill:url(#linear-gradient-2);}.cls-5{clip-path:url(#clip-path);}.cls-6{fill:#6dccff;}</style><linearGradient id="linear-gradient" x1="61.98" y1="1.45" x2="1.38" y2="79.44" gradientUnits="userSpaceOnUse"><stop offset="0" stop-color="#1caffd"/><stop offset="0.6" stop-color="#1caffd"/><stop offset="1" stop-color="#0067b6"/></linearGradient><linearGradient id="linear-gradient-2" x1="56.2" y1="-0.25" x2="48.84" y2="18.63" xlink:href="#linear-gradient"/><clipPath id="clip-path"><polyline class="cls-1" points="41.76 1.12 51.67 11.13 61.85 21.29 42.96 20.72 41.59 18.59 42.08 11.75"/></clipPath></defs><path class="cls-2" d="M61.85,21.29V73.06a6.21,6.21,0,0,1-6.18,6.19H8.1a6.21,6.21,0,0,1-6.18-6.19V7.3A6.2,6.2,0,0,1,8.1,1.12H41.76"/><path class="cls-3" d="M31.88,33.36H45.44a2.29,2.29,0,1,1,0,4.57H18.29A2.28,2.28,0,0,1,17,33.72a2.69,2.69,0,0,1,1.52-.37Z"/><path class="cls-3" d="M31.89,47.08c-4.52,0-9,0-13.56,0a2.3,2.3,0,1,1,0-4.58H45.48a2.28,2.28,0,0,1,2.22,3.18,2.32,2.32,0,0,1-2.33,1.39Z"/><path class="cls-3" d="M31.89,56.23H18.33A2.28,2.28,0,0,1,16.09,53a2.3,2.3,0,0,1,2.27-1.36H31.69c4.59,0,9.19,0,13.78,0a2.28,2.28,0,0,1,2.23,3.18,2.34,2.34,0,0,1-2.33,1.39Z"/><path class="cls-3" d="M27.39,60.8h8.76a2.3,2.3,0,1,1,0,4.57H18.43a2.3,2.3,0,1,1,0-4.57Z"/><path class="cls-4" d="M61.82,21.28H44.61a2.81,2.81,0,0,1-3.09-3.1c0-5.56,0-11.11,0-16.67,0-.21.24-.29.24-.39C48.51,7.87,55,14.51,61.82,21.28Z"/><g class="cls-5"><circle id="Ellipse_201" data-name="Ellipse 201" class="cls-6" cx="43.85" cy="6.71" r="1.77"/><circle class="cls-6" cx="43.85" cy="12.65" r="1.58"/><circle id="Ellipse_201-2" data-name="Ellipse 201" class="cls-6" cx="43.85" cy="18.59" r="1.39"/><circle id="Ellipse_201-3" data-name="Ellipse 201" class="cls-6" cx="48.78" cy="9.53" r="1.39"/><circle class="cls-6" cx="48.78" cy="14.21" r="1.25"/><circle id="Ellipse_201-4" data-name="Ellipse 201" class="cls-6" cx="48.78" cy="18.89" r="1.1"/><circle id="Ellipse_201-5" data-name="Ellipse 201" class="cls-6" cx="53.7" cy="11.75" r="1.1"/><circle class="cls-6" cx="53.7" cy="15.44" r="0.98"/><circle id="Ellipse_201-6" data-name="Ellipse 201" class="cls-6" cx="53.7" cy="19.12" r="0.87"/><circle id="Ellipse_201-7" data-name="Ellipse 201" class="cls-6" cx="57.38" cy="13.37" r="0.87"/><circle class="cls-6" cx="57.38" cy="16.28" r="0.77"/><circle id="Ellipse_201-8" data-name="Ellipse 201" class="cls-6" cx="57.38" cy="19.18" r="0.68"/></g></svg>